<svg preserveAspectRatio="none" width="100%" height="100%" overflow="visible" style="display: block;" viewBox="0 0 123 123" fill="none" xmlns="http://www.w3.org/2000/svg">
<g id="Frame 3">
<path id="Vector" d="M19 83.4775L18.7174 76.8645C15.0029 65.5977 13.4793 50.812 16.1376 42.5032C18.1819 36.1155 26.4736 22.1372 36.7926 17.3007C55.4331 8.43525 71.5789 13.8774 80.3339 16.4975C90.6826 20.6455 99.2549 26.7209 104.793 40C107.428 46.3155 109.412 58.0625 108.511 69.6012C107.878 77.7612 104.967 85.7427 103.131 92.1262C100.908 99.8421 91.7834 108.047 85.589 113.017L86.6303 113.278L83.1835 117.501L19 83.4775Z" fill="var(--fill-0, #3F3F3F)" stroke="var(--stroke-0, #3F3F3F)" stroke-width="0.5" stroke-linecap="round" stroke-linejoin="round"/>
<path id="Vector_2" d="M19 83.4775L18.7173 76.8645L19.6948 77.91L85.5911 113.015L86.6323 113.274L83.1856 117.499L19 83.4775Z" fill="var(--fill-0, #3F3F3F)" stroke="var(--stroke-0, #3F3F3F)" stroke-width="0.5" stroke-linecap="round" stroke-linejoin="round"/>
<path id="Vector_3" d="M58.0939 12.8368C66.0508 12.8368 74.6355 14.6015 82.2453 17.8065H82.2463C89.3741 20.8055 95.1435 24.8677 98.1144 28.9042C103.007 35.5487 106.194 43.4259 107.579 52.3231C108.781 60.0389 108.571 68.5553 106.966 76.9315V76.9325C105.437 84.9223 102.711 92.5012 99.2951 98.7469C95.8749 105.001 91.785 109.88 87.55 112.516L87.5471 112.517C87.2753 112.689 86.961 112.78 86.6398 112.781H86.5851C86.324 112.771 86.0683 112.705 85.8371 112.582L19.926 77.4774H19.925C19.6324 77.3219 19.3924 77.0848 19.2326 76.7968L19.1691 76.6698C18.7285 75.6898 16.5949 70.7206 15.423 63.8944C14.2507 57.0649 14.0474 48.4137 17.426 40.0448C21.1323 30.872 26.752 23.899 34.1193 19.2714L34.8371 18.8309C41.4862 14.8604 49.3026 12.8368 58.0939 12.8368Z" fill="var(--fill-0, #9CC3FF)" stroke="var(--stroke-0, #111827)"/>
<path id="Vector_4" d="M50.5584 35.8806C51.2379 35.9231 52.1116 36.0192 53.0027 36.1394C53.8912 36.2592 54.7806 36.4003 55.4852 36.5281C55.838 36.5921 56.1383 36.652 56.366 36.7029C56.5877 36.7524 56.6837 36.7808 56.699 36.7849C64.0645 39.9166 75.2445 43.007 89.0086 45.7488V45.7498C94.7905 46.897 100.599 47.9061 106.429 48.781C106.613 49.6243 106.783 50.4707 106.931 51.321L107.109 52.3943C108.301 60.0459 108.094 68.4995 106.499 76.8328C105.755 80.7045 104.725 84.5154 103.418 88.2341C94.4692 85.3666 85.5704 82.346 76.7264 79.1707H76.7274C64.0276 74.5782 56.5825 71.4059 52.1863 69.1111C47.7497 66.7951 46.5947 65.4576 46.1922 64.6296L46.1912 64.6287L45.9197 64.0369C44.6024 60.9934 43.8974 56.728 43.5301 52.989C43.1419 49.0365 43.1434 45.8164 43.1434 45.5652C43.1434 39.6952 46.111 36.5605 49.4129 35.9314L49.6063 35.8943L49.6443 35.8689C49.6721 35.8664 49.7081 35.862 49.7537 35.8601C49.9443 35.8524 50.2161 35.8592 50.5584 35.8806Z" fill="var(--fill-0, #9CC3FF)" stroke="var(--stroke-0, #9CC3FF)" stroke-width="2"/>
<path id="Vector_5" d="M103.49 47.3101L104.289 52.2273L105.054 61.4073L104.952 66.6029L104.323 73.0821L102.861 80.7618L101.208 88.3693" stroke="var(--stroke-0, #9B9B9A)" stroke-width="0.5" stroke-linecap="round" stroke-linejoin="round"/>
<path id="Vector_6" d="M50.535 51.6387C55.1789 51.6387 58.9436 47.874 58.9436 43.23C58.9436 38.5861 55.1789 34.8214 50.535 34.8214C45.891 34.8214 42.1263 38.5861 42.1263 43.23C42.1263 47.874 45.891 51.6387 50.535 51.6387Z" fill="var(--fill-0, black)" stroke="var(--stroke-0, black)" stroke-width="0.5"/>
<g id="Group">
<path id="Vector_7" d="M19 83.4775L83.1963 117.499M86.643 113.285C86.2798 113.284 85.9224 113.194 85.6018 113.024L19.6906 77.9185C19.2582 77.6887 18.9144 77.3217 18.7131 76.8752C17.8121 74.8713 10.1111 56.8279 16.9621 39.8577C19.7735 32.9004 23.6814 27.182 28.622 22.779C30.4655 21.1349 32.4605 19.6692 34.5805 18.4015C41.3168 14.3789 49.2239 12.3368 58.0936 12.3368C66.1198 12.3368 74.7706 14.1154 82.4398 17.3454C89.6116 20.3629 95.4724 24.4705 98.5175 28.6079C103.462 35.3229 106.678 43.2768 108.074 52.2464C109.285 60.0239 109.072 68.5983 107.457 77.026C104.38 93.1017 96.486 107.541 87.8139 112.941C87.4626 113.162 87.0561 113.28 86.6409 113.281L86.643 113.285Z" stroke="var(--stroke-0, #9CC3FF)" stroke-width="0.5" stroke-linecap="round" stroke-linejoin="round"/>
<path id="Vector_8" d="M107.249 47.8944C101.209 46.9991 95.1925 45.9568 89.2036 44.7685C75.4634 42.0315 64.3624 38.9567 57.0906 35.8648C56.4149 35.5779 49.8444 34.5473 49.226 34.9489C45.3436 35.6884 42.1434 39.3349 42.1434 45.5654C42.1434 46.0945 42.137 58.5917 45.2926 65.0665C46.4019 67.3488 50.9664 70.9188 76.3878 80.1115C85.5466 83.3999 94.7635 86.5241 104.034 89.4828C105.514 85.4279 106.667 81.2609 107.481 77.0218C109.096 68.5855 109.308 60.0154 108.097 52.24C107.869 50.7826 107.589 49.3339 107.258 47.8965L107.249 47.8944Z" stroke="var(--stroke-0, #9CC3FF)" stroke-width="0.5"/>
</g>
<g id="material-symbols-light:flash-on-outline">
</g>
<g id="openmoji:motorbike-helmet">
<path id="Vector_9" d="M27.3333 75.9525L27.1061 70.6362C24.12 61.5786 22.8951 49.692 25.0322 43.0124C26.6756 37.8772 33.3415 26.6398 41.6372 22.7516C56.6227 15.6244 69.6026 19.9995 76.641 22.1058C84.9605 25.4405 91.852 30.3246 96.3039 41C98.4222 46.0772 100.018 55.5208 99.2935 64.7971C98.7844 71.3571 96.444 77.7736 94.968 82.9054C93.181 89.1084 85.8455 95.7043 80.8657 99.7L81.7028 99.9102L78.9318 103.305L27.3333 75.9525Z" fill="var(--fill-0, #3F3F3F)" stroke="var(--stroke-0, #3F3F3F)" stroke-width="0.5" stroke-linecap="round" stroke-linejoin="round"/>
<path id="Vector_10" d="M27.3333 75.9525L27.1061 70.6362L27.892 71.4767L80.8674 99.6983L81.7045 99.9067L78.9335 103.303L27.3333 75.9525Z" fill="var(--fill-0, #3F3F3F)" stroke="var(--stroke-0, #3F3F3F)" stroke-width="0.5" stroke-linecap="round" stroke-linejoin="round"/>
<path id="Vector_11" d="M58.7613 19.2609C65.1446 19.2609 72.034 20.6765 78.1402 23.2482C83.8619 25.6556 88.4821 28.9126 90.856 32.1379H90.857C94.6578 37.2993 97.1756 43.3895 98.3394 50.2551L98.4478 50.9221C99.3517 56.7261 99.2599 63.0963 98.1832 69.4103L97.9547 70.6721C96.727 77.0859 94.5392 83.1692 91.7984 88.1808C89.0531 93.2007 85.775 97.1065 82.3902 99.214L82.3883 99.215C82.1854 99.3428 81.9503 99.4117 81.7105 99.4123H81.6676C81.4733 99.4046 81.2829 99.3553 81.1109 99.2638L28.1236 71.0422C27.8739 70.9094 27.6744 70.6975 27.5582 70.4396H27.5592C27.2072 69.6568 25.4945 65.6699 24.5543 60.1926C23.6136 54.7126 23.4519 47.7776 26.1588 41.0724C29.2275 33.4777 33.9284 27.7668 40.1148 24.0646C45.443 20.8829 51.7093 19.261 58.7613 19.2609Z" fill="var(--fill-0, white)" stroke="var(--stroke-0, #111827)"/>
<path id="Vector_12" d="M52.6917 37.8841C53.2313 37.9179 53.9286 37.9948 54.6429 38.0912C55.3544 38.1871 56.066 38.2996 56.6292 38.4017C56.9114 38.4529 57.1508 38.5003 57.3304 38.5404C57.5421 38.5877 57.5936 38.6077 57.5638 38.5951V38.596C63.5034 41.1215 72.5065 43.6087 83.5765 45.8138V45.8148C88.1835 46.7289 92.8119 47.5336 97.4564 48.2328C97.5929 48.8645 97.7192 49.4984 97.8304 50.1351L97.972 50.9945C98.9264 57.1215 98.7612 63.8945 97.4827 70.5736C96.8989 73.6142 96.092 76.6073 95.0745 79.5306C87.9446 77.2435 80.8534 74.8353 73.806 72.305C63.5995 68.6141 57.6247 66.0673 54.1029 64.2289C50.5399 62.3689 49.6631 61.3183 49.3695 60.7142V60.7132C48.1854 58.2836 47.563 54.6261 47.2484 51.4222C46.9372 48.2542 46.9388 45.6734 46.9388 45.474C46.9388 40.8255 49.2789 38.4052 51.8197 37.9212L52.013 37.8851L52.0364 37.8695C52.0453 37.869 52.0547 37.8679 52.0648 37.8675C52.2083 37.8617 52.4193 37.8671 52.6917 37.8841ZM51.9554 37.8763C51.9537 37.8767 51.9525 37.8763 51.9525 37.8763C51.9525 37.8763 51.9544 37.8759 51.9583 37.8753C51.9571 37.8756 51.9562 37.8762 51.9554 37.8763Z" fill="var(--fill-0, #111827)" stroke="var(--stroke-0, #9CC3FF)" stroke-width="2"/>
<path id="Vector_13" d="M95.2567 46.8767L95.899 50.8297L96.514 58.2098L96.432 62.3866L95.9263 67.5953L94.751 73.7692L93.4219 79.8851" stroke="var(--stroke-0, #9B9B9A)" stroke-width="0.5" stroke-linecap="round" stroke-linejoin="round"/>
<path id="Vector_14" d="M52.685 50.3565C56.4184 50.3565 59.4449 47.33 59.4449 43.5967C59.4449 39.8633 56.4184 36.8368 52.685 36.8368C48.9516 36.8368 45.9251 39.8633 45.9251 43.5967C45.9251 47.33 48.9516 50.3565 52.685 50.3565Z" fill="var(--fill-0, black)" stroke="var(--stroke-0, black)" stroke-width="0.5"/>
<g id="Group_2">
<path id="Vector_15" d="M27.3333 75.9525L78.9421 103.303M81.713 99.9153C81.421 99.9144 81.1337 99.8423 80.8759 99.7052L27.8885 71.4835C27.5409 71.2987 27.2645 71.0037 27.1027 70.6447C26.3784 69.0338 20.1874 54.5283 25.695 40.8855C27.9552 35.2925 31.0968 30.6953 35.0687 27.1557C36.5506 25.8339 38.1545 24.6556 39.8588 23.6365C45.2743 20.4026 51.631 18.7609 58.7615 18.7609C65.2139 18.7609 72.1685 20.1908 78.3339 22.7875C84.0995 25.2133 88.8111 28.5155 91.2592 31.8416C95.2345 37.24 97.8192 43.6343 98.9415 50.8451C99.9153 57.0976 99.7445 63.9908 98.4461 70.766C95.9725 83.6895 89.626 95.2977 82.6543 99.6385C82.3719 99.8164 82.0451 99.9111 81.7113 99.9119L81.713 99.9153Z" stroke="var(--stroke-0, black)" stroke-width="0.5" stroke-linecap="round" stroke-linejoin="round"/>
<path id="Vector_16" d="M98.2787 47.3465C93.4233 46.6267 88.5861 45.7888 83.7715 44.8335C72.7255 42.6332 63.8011 40.1612 57.9552 37.6756C57.412 37.445 52.1298 36.6164 51.6327 36.9393C48.5115 37.5338 45.9388 40.4653 45.9388 45.4741C45.9388 45.8995 45.9337 55.9462 48.4705 61.1515C49.3623 62.9863 53.0318 65.8562 73.4686 73.2465C80.8315 75.8901 88.2412 78.4017 95.694 80.7802C96.8839 77.5205 97.8105 74.1705 98.4649 70.7626C99.7632 63.9805 99.9341 57.0908 98.9603 50.84C98.7773 49.6684 98.5522 48.5037 98.2855 47.3482L98.2787 47.3465Z" stroke="var(--stroke-0, black)" stroke-width="0.5"/>
</g>
<g id="material-symbols-light:flash-on-outline_2">
</g>
<line id="Line 1" x1="10.9179" y1="33.0035" x2="22.0035" y2="35.0821" stroke="var(--stroke-0, #9CC3FF)" stroke-width="5" stroke-linecap="round"/>
<line id="Line 2" x1="9.85107" y1="42.9092" x2="17.9092" y2="44.1489" stroke="var(--stroke-0, #9CC3FF)" stroke-width="5" stroke-linecap="round"/>
<line id="Line 3" x1="18.8511" y1="29.9092" x2="26.9092" y2="31.1489" stroke="var(--stroke-0, #9CC3FF)" stroke-width="5" stroke-linecap="round"/>
<line id="Line 4" x1="9.85107" y1="53.9092" x2="17.9092" y2="55.1489" stroke="var(--stroke-0, #9CC3FF)" stroke-width="5" stroke-linecap="round"/>
<line id="Line 5" x1="11.8511" y1="57.9092" x2="19.9092" y2="59.1489" stroke="var(--stroke-0, #9CC3FF)" stroke-width="5" stroke-linecap="round"/>
<line id="Line 6" x1="3.92363" y1="61.0119" x2="20.0119" y2="64.0764" stroke="var(--stroke-0, #9CC3FF)" stroke-width="5" stroke-linecap="round"/>
<circle id="Ellipse 1" cx="53" cy="43" r="3" fill="var(--fill-0, white)"/>
</g>
<line id="Line 1_2" x1="5.9179" y1="38.0035" x2="17.0035" y2="40.0821" stroke="var(--stroke-0, #9CC3FF)" stroke-width="5" stroke-linecap="round"/>
</g>
</svg>
