<svg preserveAspectRatio="none" width="100%" height="100%" overflow="visible" style="display: block;" viewBox="0 0 167 167" fill="none" xmlns="http://www.w3.org/2000/svg">
<g id="emojione-v1:motorcycle" clip-path="url(#clip0_0_13)">
<path id="Vector" d="M136.81 81.4647L153.139 73.4539C153.139 73.4539 158.287 73.6392 157.03 77.1566C157.03 77.1566 154.892 80.1391 154.462 80.147L140.105 86.7435L136.992 86.3703L136.068 83.9566L136.81 81.4647Z" fill="var(--fill-0, #939598)"/>
<path id="Vector_2" d="M111.045 88.4526L142.743 73.9288C142.743 73.9288 153.551 73.8036 152.035 79.6955C152.035 79.6955 148.497 84.7708 147.578 84.8151L119.582 96.847L112.962 96.5103L110.277 92.6093L111.045 88.4526Z" fill="var(--fill-0, #A7A9AC)"/>
<path id="Vector_3" d="M68.3917 30.2975C68.3917 30.2975 85.8589 25.0918 98.3787 39.5085C98.3787 39.5085 113.393 54.4655 115.319 59.405L95.9402 60.561L76.5617 61.7169C76.5617 61.7169 59.6999 61.1585 54.1941 48.5657C54.1941 48.5657 62.1005 30.3105 68.3917 30.3001" fill="var(--fill-0, #9CC3FF)"/>
<path id="Vector_4" d="M68.7675 46.8096C71.3768 45.0169 75.317 33.9923 73.193 29.499C61.6334 29.3816 58.4213 34.7177 58.4213 34.7177C55.5249 34.723 57.9594 46.3555 56.8896 48.6518C61.0776 49.1006 64.9943 49.3955 68.7675 46.8096Z" fill="var(--fill-0, #0063FF)"/>
<path id="Vector_5" d="M83.6044 87.7089C83.6044 87.7089 104.532 94.4907 122.928 83.4139C122.928 83.4139 132.173 77.702 139.583 76.5956C139.583 76.5956 153.76 69.151 154.506 62.3928C154.506 62.3928 152.458 59.3476 145.261 60.7254C145.261 60.7254 126.839 56.994 122.145 59.8617C122.145 59.8617 113.166 67.5437 107.976 68.804L90.5871 66.2677L69.9104 62.2205L52.5867 65.1196L46.7835 73.0625L63.7027 83.6618L83.5992 87.7089" fill="var(--fill-0, #25333A)"/>
<path id="Vector_6" d="M115.7 129.54C115.7 129.54 115.995 131.103 117.075 133.391C118.567 136.504 120.628 139.309 123.152 141.663C130.341 148.967 141.47 151.866 150.877 147.837C152.707 147.165 154.437 146.25 156.022 145.115C163.365 139.62 166.512 129.615 166.316 120.209C166.048 116.361 165.11 112.589 163.545 109.064C160.419 101.964 154.819 95.8476 147.474 92.6041C145.977 91.946 144.427 91.417 142.84 91.0228C136.008 89.3372 126.748 89.8486 117.004 98.6266C117.004 98.6266 109.228 119.684 115.7 129.54Z" fill="var(--fill-0, #2C3B44)"/>
<path id="Vector_7" d="M150.746 100.2C149.458 99.4671 148.114 98.8388 146.725 98.3212C144.387 97.468 142.279 97.1262 140.384 97.1575C130.933 97.2932 126.86 106.585 126.86 106.585C126.818 106.635 126.792 106.695 126.756 106.747L129.49 104.085C129.49 104.085 143.341 98.804 151.151 118.15C151.151 118.15 155.383 135.153 142.842 138.521L139.8 137.357C144.405 139.479 148.079 139.591 150.942 138.793C153.797 137.999 155.834 136.293 157.16 134.792C161.343 130.119 161.833 124.178 161.583 118.515C161.421 115.864 160.625 113.236 159.43 110.76C158.23 108.302 156.714 106.011 154.919 103.947C152.682 101.486 150.746 100.2 150.746 100.2Z" fill="var(--fill-0, #25333A)"/>
<path id="Vector_8" d="M151.151 118.152C143.341 98.8066 129.49 104.088 129.49 104.088L126.756 106.75C123.149 112.315 128.64 126.625 128.64 126.625C130.038 128.974 131.304 130.764 132.434 132.126C135.654 135.575 139.158 138.331 143.97 138.38C145.332 138.127 146.631 137.402 147.722 136.032C149.006 134.837 149.922 133.423 150.558 131.886C153.089 125.782 151.151 118.152 151.151 118.152Z" fill="var(--fill-0, #9CC3FF)"/>
<path id="Vector_9" d="M137.911 111.833C137.911 111.833 145.199 102.261 152.025 111.754C152.025 111.754 160.046 124.783 144.711 127.463C144.711 127.463 137.464 124.919 135.286 118.82L135.038 114.202L137.911 111.84" fill="var(--fill-0, #26292D)"/>
<path id="Vector_10" d="M106.682 98.697C106.682 98.697 124.564 91.6595 120.913 110.943C120.913 110.943 113.936 117.738 113.166 116.796C112.394 115.848 104.847 113.171 104.847 113.171L101.09 110.045L106.682 98.697Z" fill="var(--fill-0, #F05E27)"/>
<path id="Vector_11" d="M38.6448 70.0513C38.6448 70.0513 46.7313 53.1608 62.5832 59.1284C62.5832 59.1284 79.8965 61.8683 90.3809 77.3445C90.3809 77.3445 99.9338 86.5973 104.19 86.4695C104.19 86.4695 117.589 105.607 99.0284 114.416L70.4792 88.964L45.6275 76.3451L38.6448 70.0513Z" fill="var(--fill-0, #26292D)"/>
<path id="Vector_12" d="M48.9858 132.494C48.9858 132.494 51.4203 137.264 56.9235 137.313C56.9235 137.313 109.797 137.464 113.641 138.276C113.641 138.276 125.975 129.352 126.396 116.049C126.396 116.049 120.657 111.981 117.017 113.98C117.017 113.98 106.418 127.254 98.9031 109.114C98.9031 109.114 89.2458 103.822 82.104 106.559C82.104 106.559 64.9421 112.848 62.3119 108.125C62.3066 108.125 41.3064 119.288 48.9858 132.494Z" fill="var(--fill-0, #2A2F3A)"/>
<path id="Vector_13" d="M29.9087 69.8295C29.9087 69.8295 47.655 65.477 52.9755 73.099C52.9755 73.099 60.3183 76.5956 62.8285 76.4547C62.8285 76.4547 77.0235 78.2969 92.9668 91.0568C92.9668 91.0568 104.949 103.49 87.902 110.228C87.902 110.228 62.8285 120.412 57.0853 114.439L37.5045 84.5568L25.9633 83.3121L20.5619 82.438L29.9087 69.8295Z" fill="var(--fill-0, #9CC3FF)"/>
<path id="Vector_14" d="M76.0372 88.5622C79.3503 87.7886 82.6443 86.935 85.9163 86.0024C78.4065 81.2037 71.7761 78.7457 67.5724 77.5402C60.5636 79.0145 53.3722 80.147 47.1175 83.7531C44.6151 85.1987 42.4702 87.0566 40.4766 89.0945L46.0424 97.5932C55.3422 92.8807 65.8293 90.8976 76.0294 88.5622" fill="var(--fill-0, black)" fill-opacity="0.74"/>
<path id="Vector_15" d="M17.1514 94.0941C17.1514 94.0941 6.53649 90.2922 14.015 86.3312C14.015 86.3312 31.3229 77.6028 38.089 78.6857C38.089 78.6857 72.9947 92.6589 63.3321 104.521C63.3321 104.521 58.2517 113.477 57.8211 117.725C57.8211 117.725 51.5717 119.796 49.6434 117.678L33.8566 98.5978L17.1566 94.0941" fill="var(--fill-0, #9CC3FF)"/>
<path id="Vector_16" d="M35.6388 59.0502C35.6388 59.0502 37.8412 54.6638 40.9855 54.596L48.8919 56.5869L49.7008 55.0056L54.335 56.4669L55.1126 58.617L70.2365 64.1097C70.2365 64.1097 71.3899 65.7615 68.9762 67.1627L54.0923 62.1945L51.556 62.2545L47.7959 61.5839L47.5219 60.2583L44.5238 63.5409L35.725 63.1782L35.6336 59.0502" fill="var(--fill-0, #121416)"/>
<path id="Vector_17" d="M157.006 52.8764C157.006 52.8764 157.512 58.8075 146.464 62.0483C146.464 62.0483 129.589 64.5585 124.094 62.4267L123.622 59.1337L129.221 56.8139L131.617 54.8073L134.216 53.6227C134.216 53.6227 153.528 50.3792 156.996 52.8764M11.3377 97.7759C11.3377 97.7759 3.32695 101.907 0.767156 111.634C0.21528 113.764 -0.0410997 115.96 0.00521875 118.16C0.511438 133.947 12.4389 148.922 28.0299 150.626C30.575 150.743 33.1217 150.431 35.5632 149.702C38.2143 148.925 40.9907 147.638 43.8897 145.707C43.8897 145.707 56.4851 138.172 53.0173 116.342L43.0573 97.8385L23.0382 93.34L11.3377 97.7759Z" fill="var(--fill-0, #2C3B44)"/>
<path id="Vector_18" d="M17.7124 103.081C17.7124 103.081 13.9836 105.006 11.5439 109.395C10.6382 111.017 10.0186 112.782 9.71209 114.614C8.69444 125.777 15.3353 137.791 26.5478 140.969C28.794 141.554 31.1398 141.65 33.4261 141.248C35.9076 140.818 38.5613 139.774 41.3638 137.908C41.3638 137.908 50.5332 132.426 48.0047 116.563L40.7663 103.115L26.219 99.8477L17.7124 103.06" fill="var(--fill-0, #25333A)"/>
<path id="Vector_19" d="M22.8973 108.279C22.8973 108.279 13.3757 113.189 19.9356 125.788C19.9356 125.788 27.2445 137.681 38.0003 130.521C38.0003 130.521 43.8349 127.022 42.2327 116.892L37.6167 108.307L28.3274 106.22L22.8973 108.279Z" fill="var(--fill-0, #9CC3FF)"/>
<path id="Vector_20" d="M7.20448 97.1992C7.20448 97.1992 15.1344 87.6567 32.0562 91.0515C32.0562 91.0515 38.9919 90.8767 39.7199 94.9865C39.7199 94.9865 36.1451 112.949 32.7268 118.933C32.7268 118.933 33.5644 127.204 27.1558 121.636C27.1558 121.636 25.765 111.593 27.5733 107.371C27.5733 107.371 29.2511 98.209 22.1953 98.2821C22.1927 98.2795 10.1583 99.699 7.20448 97.1992Z" fill="var(--fill-0, #374149)"/>
<path id="Vector_21" d="M30.9211 111.201C30.9211 111.201 39.6912 99.0936 43.9941 120.274C43.9941 120.274 37.5045 129.936 30.6575 121.273L29.4181 115.441L30.9185 111.613" fill="var(--fill-0, #323C45)"/>
<path id="Vector_22" d="M115.465 130.782C115.465 130.782 138.683 123.888 142.073 121.37C142.073 121.37 150.125 123.911 150.47 118.604C150.47 118.604 151.717 109.844 141.525 112.655L140.51 111.731C140.51 111.731 129.096 106.46 114.285 110.596C114.285 110.596 101.792 109.495 98.3212 105.489C98.3239 105.492 75.8728 122.849 115.465 130.782Z" fill="var(--fill-0, #46484E)"/>
<path id="Vector_23" d="M106.812 54.5907C106.812 54.5907 84.5516 52.9808 89.5564 64.5977C94.5611 76.2146 89.5407 65.5031 89.5407 65.5031C89.5407 65.5031 95.4092 79.4763 103.143 83.4426C110.885 87.4193 103.297 84.1419 103.297 84.1419L113.954 82.2397C113.954 82.2397 107.191 69.1667 105.847 67.9272C105.847 67.9272 109.923 75.1317 115.783 64.8273C115.778 64.8247 117.364 53.9332 106.812 54.5907Z" fill="var(--fill-0, #265D70)"/>
<path id="Vector_24" d="M100.357 82.6389C100.357 82.6389 111.12 74.9099 114.051 82.8685C114.051 82.8685 118.578 94.4724 120.827 96.299C120.827 96.299 127.254 101.22 122.875 105.92C122.875 105.92 115.888 113.891 109.75 114.15C109.75 114.15 103.73 112.083 107.939 106.583C107.939 106.583 108.401 99.0258 107.577 97.0687C107.577 97.0687 100.557 84.4863 100.367 82.6389" fill="var(--fill-0, #2C3B44)"/>
<path id="Vector_25" d="M70.4453 58.2856C70.4453 58.2856 74.9621 55.9137 82.6624 56.9105C82.6624 56.9105 74.4533 41.6639 78.477 37.2097C78.477 37.2097 88.3352 31.1768 92.0039 41.1916C92.0039 41.1916 97.0296 60.0026 96.8522 63.9871C96.8522 63.9871 94.8743 69.2032 86.8322 67.6559C86.8322 67.6559 73.9471 68.3343 70.093 64.6995L70.4453 58.2856Z" fill="var(--fill-0, #0063FF)"/>
<path id="Vector_26" d="M56.887 55.1622C56.887 55.1622 46.6634 62.4737 60.908 66.6487C60.908 66.6487 67.9012 65.678 71.202 66.6904C71.202 66.6904 80.9663 61.015 70.26 56.6052C70.26 56.6052 62.9068 57.4845 62.1136 56.9653C62.1136 56.9653 60.454 53.5444 56.8948 55.1622" fill="var(--fill-0, #2C3B44)"/>
<path id="Vector_27" d="M59.8878 29.6686C59.6425 24.8569 57.4193 26.4643 57.4193 26.4643C57.4193 26.4643 57.4402 26.4304 57.4637 26.373C57.4297 26.433 57.4089 26.4904 57.3723 26.553C52.1771 36.7635 42.3188 34.6708 42.2928 34.6655C43.8323 41.1133 47.9916 45.7006 50.7419 48.143C62.2232 43.2713 59.8878 29.6686 59.8878 29.6686Z" fill="var(--fill-0, #9CC3FF)"/>
<path id="Vector_28" d="M56.4303 16.3869C42.6163 16.6217 41.917 32.6955 41.917 32.6955C42.0179 33.3739 42.1431 34.0315 42.2928 34.6682C42.3188 34.6734 52.1771 36.7635 57.3723 26.5556C57.4089 26.493 57.4271 26.4356 57.4637 26.3756L57.4193 26.4669C57.4141 26.4721 59.6425 24.8569 59.8878 29.6712C59.8878 29.6712 62.2232 43.2765 50.7419 48.1482C52.2475 49.4842 53.333 50.1783 53.333 50.1783C63.5983 48.8997 68.5822 35.1248 68.5822 35.1248C73.6914 17.7281 56.4303 16.3869 56.4303 16.3869Z" fill="var(--fill-0, #25333A)"/>
<path id="Vector_29" d="M16.9453 58.1317C16.9453 58.1317 27.435 44.7847 32.0849 43.7018C32.0849 43.7018 50.8724 38.7884 52.7407 48.4457L36.453 58.1786L28.2308 61.5891L25.0839 61.1481L16.9453 58.1317Z" fill="var(--fill-0, #9CC3FF)"/>
<path id="Vector_30" d="M15.6093 87.3671C15.6093 87.3671 7.01139 86.8348 8.21431 78.1012C8.21431 78.1012 10.4036 63.9662 17.9108 57.174C17.9108 57.174 23.4035 55.3005 28.5648 59.6216C28.5648 59.6216 38.6057 48.0673 55.992 46.7287C55.992 46.7287 58.4761 50.6793 54.0636 52.0857C54.0636 52.0857 35.3805 55.1126 37.0375 65.1274C37.0375 65.1274 35.7745 72.465 30.3862 75.9693C30.3862 75.9693 21.4073 84.7081 16.5069 87.1636" fill="var(--fill-0, #26292D)"/>
<path id="Vector_31" d="M24.3142 61.7535C24.3142 61.7535 9.55031 72.6215 12.3162 81.7804C12.3162 81.7804 12.311 84.2854 15.3379 81.6186C18.3648 78.9519 15.4292 81.9657 15.4292 81.9657C15.4292 81.9657 21.2925 81.5299 21.0498 75.972L23.4452 72.9294C23.4452 72.932 21.5273 67.6037 24.3142 61.7535Z" fill="var(--fill-0, #A7A9AC)"/>
<path id="Vector_32" fill-rule="evenodd" clip-rule="evenodd" d="M84.99 42.1414C85.1335 42.3371 85.4544 42.358 85.6736 42.2093C85.8012 42.1136 85.8988 41.9834 85.9548 41.834C86.0107 41.6847 86.0227 41.5224 85.9893 41.3664C85.8537 40.7245 85.2431 40.4584 84.7368 40.5158C84.014 40.6071 83.5209 41.2125 83.5209 41.9901C83.5209 42.9973 84.3037 43.6183 85.2117 43.6809C86.1798 43.754 87.0279 43.1356 87.3071 42.1597C87.3969 41.8217 87.4121 41.4682 87.3518 41.1237C87.2915 40.7792 87.1571 40.452 86.9578 40.1646C86.7585 39.8772 86.4991 39.6365 86.1977 39.4593C85.8962 39.282 85.5598 39.1724 85.2117 39.138C83.4504 38.9397 82.1144 40.3175 82.1196 41.9796C82.1249 43.1773 82.6728 44.075 83.7114 44.6751C83.9671 44.8317 84.0584 45.1605 83.9071 45.4292C83.821 45.578 83.7975 45.591 83.6357 45.5127C82.97 45.2045 82.4021 44.7187 81.9944 44.1089C81.2351 42.9816 81.1463 41.7839 81.6526 40.5288C82.01 39.6442 82.6259 39.0206 83.4843 38.6344C84.9143 37.9873 86.9679 38.3891 87.8446 40.1505C88.6405 41.7474 87.9255 43.4122 86.6521 44.1324C85.4022 44.8395 83.7192 44.3907 83.0251 43.1538C82.3936 42.0188 82.8085 40.5053 83.9801 39.9495C84.8517 39.532 86.0728 39.7277 86.5895 40.7637C86.9992 41.5804 86.6991 42.5485 85.9528 42.9268C85.2196 43.2974 84.4916 42.9816 84.2098 42.4415C84.093 42.215 84.0697 41.9518 84.1448 41.7084C84.2199 41.4649 84.3875 41.2607 84.6116 41.1394C84.9482 40.9646 85.4414 41.1785 85.5301 41.5517C85.5469 41.6201 85.5482 41.6913 85.5338 41.7602C85.5193 41.8291 85.4896 41.8939 85.4468 41.9498C85.4039 42.0057 85.3491 42.0512 85.2862 42.083C85.2234 42.1148 85.1543 42.1321 85.0839 42.1336L84.9847 42.1414" fill="var(--fill-0, #FD7D23)"/>
</g>
<defs>
<clipPath id="clip0_0_13">
<rect width="167" height="167" fill="white"/>
</clipPath>
</defs>
</svg>
