<svg preserveAspectRatio="none" width="100%" height="100%" overflow="visible" style="display: block;" viewBox="0 0 317 226" fill="none" xmlns="http://www.w3.org/2000/svg">
<g id="illustration">
<g id="Vector" filter="url(#filter0_i_0_6)">
<path d="M307.306 69.8351C292.756 43.0265 260.234 26.3852 230.866 33.7261C214.868 37.7446 200.867 48.0299 184.727 51.4116C171.031 54.2243 156.79 51.8935 144.671 44.8559C126.957 34.4846 115.649 15.0058 97.419 5.60265C72.2944 -7.3744 39.5837 3.41897 21.5791 25.3727C-21.0585 77.3626 4.92162 152.22 52.3023 190.091C76.3387 209.303 90.1504 215.957 124.899 223.786C154.416 230.467 204.623 220.741 233.518 211.687C262.414 202.632 288.982 183.991 304.179 157.542C319.377 131.092 321.865 96.6409 307.306 69.8351Z" fill="var(--fill-0, #F1F1FA)"/>
</g>
<g id="Mask Group">
<mask id="mask0_0_6" style="mask-type:alpha" maskUnits="userSpaceOnUse" x="0" y="0" width="317" height="226">
<path id="Vector_2" d="M307.306 69.8351C292.756 43.0265 260.234 26.3852 230.866 33.7261C214.868 37.7446 200.867 48.0299 184.727 51.4116C171.031 54.2243 156.79 51.8935 144.671 44.8559C126.957 34.4846 115.649 15.0058 97.419 5.60265C72.2944 -7.3744 39.5837 3.41897 21.5791 25.3727C-21.0585 77.3626 4.92162 152.22 52.3023 190.091C76.3387 209.303 90.1504 215.957 124.899 223.786C154.416 230.467 204.623 220.741 233.518 211.687C262.414 202.632 288.982 183.991 304.179 157.542C319.377 131.092 321.865 96.6409 307.306 69.8351Z" fill="var(--fill-0, #F1F1FA)"/>
</mask>
<g mask="url(#mask0_0_6)">
<path id="desert1" d="M226.398 194.11L229.852 195.535L27.4785 252.303C-32.2432 245.891 -146.395 225.561 -125.23 195.535C-98.7726 158.003 -69.0665 135.484 0.55732 135.484C84.3488 135.484 95.5204 140.094 226.398 194.11Z" fill="var(--fill-0, #BBBBD6)"/>
<path id="desert2" d="M249.538 168.276C285.912 168.276 315.212 176.425 346.028 215.639L247.518 261.475C182.518 254.515 90.1031 261.984 113.139 229.39C141.935 188.647 173.761 168.276 249.538 168.276Z" fill="var(--fill-0, #BBBBD6)" stroke="var(--stroke-0, #F1F1FA)" stroke-width="3.98616"/>
<g id="electric socket">
<path id="Vector_3" d="M109.561 113.936C109.561 114.297 109.455 114.649 109.256 114.949C109.058 115.249 108.776 115.482 108.447 115.62C108.117 115.757 107.754 115.793 107.405 115.722C107.055 115.651 106.734 115.476 106.482 115.221C106.231 114.965 106.06 114.64 105.991 114.286C105.923 113.933 105.96 113.566 106.097 113.234C106.235 112.901 106.467 112.617 106.765 112.418C107.062 112.219 107.411 112.114 107.768 112.116C108.004 112.116 108.238 112.163 108.456 112.254C108.674 112.346 108.872 112.48 109.039 112.649C109.205 112.819 109.337 113.019 109.427 113.24C109.516 113.461 109.562 113.698 109.561 113.936V113.936Z" fill="var(--fill-0, #263238)"/>
<path id="Vector_4" d="M118.175 106.791C119.17 106.791 119.976 105.976 119.976 104.97C119.976 103.965 119.17 103.15 118.175 103.15C117.18 103.15 116.373 103.965 116.373 104.97C116.373 105.976 117.18 106.791 118.175 106.791Z" fill="var(--fill-0, #263238)"/>
<path id="Vector_5" d="M93.8598 136.382C93.8615 136.742 93.7572 137.095 93.5603 137.396C93.3634 137.696 93.0827 137.931 92.7537 138.07C92.4246 138.209 92.0622 138.247 91.7122 138.177C91.3622 138.108 91.0404 137.935 90.7876 137.681C90.5348 137.427 90.3624 137.102 90.2922 136.749C90.222 136.395 90.2571 136.029 90.3932 135.696C90.5293 135.362 90.7602 135.077 91.0566 134.877C91.3531 134.677 91.7017 134.57 92.0583 134.57C92.2945 134.568 92.5286 134.614 92.7471 134.705C92.9656 134.796 93.1642 134.929 93.3316 135.097C93.499 135.266 93.6319 135.466 93.7225 135.686C93.8131 135.907 93.8598 136.143 93.8598 136.382Z" fill="var(--fill-0, #263238)"/>
<path id="Vector_6" d="M3.95879 178.086C2.36893 178.114 0.80788 178.534 -0.587112 179.311L-0.590042 179.313C-3.91493 181.237 -5.64143 185.288 -5.66719 190.946L-5.66035 191.7C-5.50974 199.434 -3.01902 205.47 2.08379 209.995L2.17656 210.077L2.29082 210.031C6.45087 208.358 10.3623 206.112 13.9148 203.358L13.9158 203.359C15.5338 202.119 16.8535 200.526 17.7762 198.699C18.6988 196.872 19.2001 194.857 19.2439 192.806V192.801C19.2438 187.902 16.5905 183.35 12.0828 180.515L11.6414 180.246C9.41702 178.886 6.87738 178.141 4.27812 178.086H3.95879ZM114.054 137.624C113.001 116.287 100.68 95.4456 82.6424 84.5201C67.0009 75.0394 46.9678 72.4479 26.2478 77.2037C13.3773 80.1599 -4.16972 87.177 -14.5158 103.837C-20.0891 112.816 -22.1207 122.875 -21.6096 131.982C-21.0987 141.086 -18.0464 149.258 -13.4289 154.456C-10.1083 158.198 -5.27686 159.379 -0.0480499 159.371C5.18012 159.362 10.8475 158.163 15.8758 157.107L15.8748 157.106L19.1853 156.417L19.1863 156.418C21.9114 155.87 26.6997 154.154 32.3357 151.898C37.9778 149.639 44.4867 146.831 50.6609 144.09C56.8353 141.349 62.6768 138.674 66.9852 136.681C69.1393 135.685 70.9105 134.859 72.1482 134.28C72.7669 133.99 73.2523 133.762 73.5857 133.606C73.71 133.548 73.8134 133.499 73.8943 133.461L74.7205 136.604C74.7091 136.609 74.6975 136.615 74.6853 136.621C74.5817 136.669 74.4386 136.736 74.2596 136.821C73.9014 136.991 73.3952 137.233 72.7605 137.538C71.4908 138.147 69.7039 139.005 67.5447 140.036C63.2258 142.097 57.4184 144.844 51.2859 147.654C45.1532 150.463 38.6966 153.333 33.0799 155.641C27.4572 157.951 22.6926 159.69 19.9353 160.245C19.4053 160.348 18.8668 160.458 18.3211 160.573L16.6629 160.927C11.109 162.106 4.88679 163.423 -0.965042 163.301C-6.62926 163.184 -11.9206 161.719 -15.9143 157.498L-16.2971 157.081C-22.1664 150.462 -25.4416 140.899 -25.5012 130.141C-25.5663 120.144 -22.8942 110.323 -17.7785 101.767C-6.72016 83.9977 11.7876 76.5355 25.3992 73.3824L25.3982 73.3814C47.1012 68.4033 68.1348 71.1629 84.6209 81.1246C103.688 92.7394 116.715 114.831 117.873 137.393L117.874 137.399C117.966 138.539 119.108 154.999 110.395 173.628C105.167 184.785 97.3852 194.522 87.6932 202.033H87.6922C75.4192 211.64 59.6632 218.395 40.8182 222.205C37.4183 222.887 33.9602 223.231 30.4939 223.228H30.493C26.7957 223.227 23.1087 222.823 19.4969 222.024C11.9848 220.354 6.11484 217.903 1.64531 214.56L1.55937 214.497L1.45879 214.532C-4.14002 216.507 -10.0104 217.583 -15.9387 217.722H-15.9397C-35.2336 218.247 -52.707 212.159 -74.1516 194.627C-75.1267 192.518 -76.0701 190.299 -76.9807 187.969C-56.7624 204.353 -34.9475 213.982 -16.9045 213.839L-16.0402 213.825C-11.3445 213.7 -6.68539 212.951 -2.18282 211.598L-1.87129 211.505L-2.09492 211.269C-7.0487 206.048 -9.55271 199.223 -9.51875 190.913V190.912C-9.51873 181.826 -5.66217 177.742 -2.49825 175.915V175.914C1.99307 173.309 8.16439 173.654 13.5984 176.854C19.4001 180.275 22.9142 185.975 23.1053 192.197L23.1131 192.801C23.0717 195.449 22.4367 198.054 21.2557 200.418C20.0742 202.782 18.3771 204.845 16.2928 206.451H16.2918C13.1612 208.879 9.76885 210.941 6.17949 212.597L5.82207 212.762L6.16679 212.954C16.5145 218.692 28.5186 220.604 40.1111 218.36H40.1121C58.329 214.705 73.556 208.17 85.3592 198.93C94.5995 191.752 102.021 182.459 107.01 171.814C111.843 161.502 114.26 150.208 114.081 138.808L114.055 137.705V137.633L114.054 137.624Z" fill="var(--fill-0, #FFBF00)" stroke="var(--stroke-0, black)" stroke-width="0.4"/>
<path id="Vector_7" d="M4.9231 216.947C4.34846 216.785 3.80759 216.519 3.32656 216.162C2.1122 215.387 0.956439 214.521 -0.13119 213.573C-1.23656 212.651 -2.26721 211.641 -3.21328 210.553C-3.63903 210.125 -3.97831 209.618 -4.21219 209.06C-4.16096 209.06 -3.7597 209.577 -2.99131 210.354C-2.22292 211.131 -1.1301 212.166 0.133475 213.245C1.39705 214.324 2.60085 215.256 3.48877 215.886C3.99116 216.205 4.47049 216.559 4.9231 216.947V216.947Z" fill="var(--fill-0, #263238)"/>
<path id="Vector_8" d="M9.39664 214.427C8.73095 214.39 8.07866 214.223 7.47567 213.935C5.99581 213.32 4.6147 212.485 3.37759 211.459C2.13507 210.444 1.01466 209.286 0.0393674 208.007C-0.39701 207.492 -0.748688 206.909 -1.00223 206.281C-0.951002 206.281 -0.524114 206.868 0.269888 207.791C1.30718 208.992 2.45023 210.096 3.68495 211.088C4.89709 212.091 6.22427 212.942 7.63788 213.625C8.67947 214.177 9.41372 214.358 9.39664 214.427Z" fill="var(--fill-0, #263238)"/>
<path id="Vector_9" d="M-7.6444 199.559C-7.77445 199.343 -7.86688 199.107 -7.91762 198.86C-8.11674 198.207 -8.28202 197.545 -8.41279 196.875C-9.27481 192.429 -8.95367 187.831 -7.48219 183.551C-7.26599 182.906 -7.01226 182.275 -6.72234 181.661C-6.63364 181.427 -6.51294 181.206 -6.36376 181.005C-6.29545 181.005 -6.7138 182.015 -7.21752 183.646C-7.85448 185.775 -8.25817 187.969 -8.42133 190.187C-8.56886 192.403 -8.4715 194.629 -8.13106 196.823C-7.85785 198.514 -7.5761 199.541 -7.6444 199.559Z" fill="var(--fill-0, white)"/>
<path id="Vector_10" d="M-18.2737 215.005C-18.9391 215.224 -19.6319 215.346 -20.3313 215.368C-23.6992 215.653 -27.0875 215.167 -30.2435 213.944C-30.9082 213.724 -31.5402 213.413 -32.1218 213.021C-31.4487 213.19 -30.7871 213.404 -30.141 213.659C-28.5661 214.18 -26.9492 214.561 -25.3087 214.798C-23.6658 215.03 -22.0063 215.12 -20.3483 215.066C-19.6586 215.004 -18.9658 214.983 -18.2737 215.005V215.005Z" fill="var(--fill-0, white)"/>
<path id="Vector_11" d="M99.4349 186.381C99.0887 187.053 98.6707 187.683 98.1885 188.263C95.9955 191.16 93.4675 193.782 90.6582 196.072C90.1003 196.576 89.4873 197.013 88.8312 197.375C89.3323 196.836 89.8716 196.334 90.4448 195.874C91.4693 194.951 92.8609 193.647 94.3294 192.137C95.7979 190.627 97.0444 189.169 97.9323 188.107C98.3908 187.496 98.8931 186.919 99.4349 186.381V186.381Z" fill="var(--fill-0, white)"/>
<path id="Vector_12" d="M-22.3375 142.448C-22.5224 142.082 -22.6683 141.698 -22.7729 141.301C-23.1158 140.244 -23.4008 139.17 -23.6267 138.082C-24.0059 136.472 -24.291 134.841 -24.4804 133.198C-24.9278 129.161 -24.8215 125.081 -24.1645 121.073C-23.8944 119.439 -23.5295 117.823 -23.0717 116.232C-22.769 115.159 -22.4128 114.102 -22.0045 113.065C-21.8785 112.674 -21.7125 112.298 -21.5093 111.943C-21.5916 112.346 -21.7058 112.741 -21.8508 113.125C-22.107 113.867 -22.4314 114.955 -22.7814 116.31C-23.1985 117.899 -23.5319 119.509 -23.7804 121.133C-24.0725 123.135 -24.2521 125.152 -24.3182 127.174C-24.363 129.191 -24.286 131.208 -24.0877 133.215C-23.9254 134.849 -23.6775 136.474 -23.3449 138.082C-23.0632 139.454 -22.7985 140.559 -22.5851 141.309C-22.4729 141.682 -22.3901 142.063 -22.3375 142.448V142.448Z" fill="var(--fill-0, white)"/>
<path id="Vector_13" d="M-17.1808 103.71C-17.3942 104.532 -17.7434 105.311 -18.2138 106.015C-18.5654 106.788 -19.0414 107.496 -19.6225 108.112C-19.4038 107.291 -19.0518 106.512 -18.5809 105.807C-18.227 105.038 -17.7544 104.33 -17.1808 103.71V103.71Z" fill="var(--fill-0, white)"/>
<path id="Vector_14" d="M134.567 139.161L126.977 99.7235C126.808 98.9747 126.357 98.3218 125.72 97.9029C125.083 97.484 124.309 97.3319 123.563 97.4787C122.817 97.6254 122.157 98.0596 121.722 98.6895C121.287 99.3194 121.111 100.096 121.231 100.854L121.581 102.649L105.881 106.55C104.216 106.962 102.677 107.781 101.398 108.935C100.119 110.089 99.1402 111.543 98.5469 113.168L89.0786 115.524C87.503 115.916 86.1459 116.924 85.3054 118.327C84.4649 119.73 84.2099 121.413 84.5964 123.006L85.4501 126.458L76.1868 128.771C75.5729 128.924 74.9949 129.197 74.4857 129.576C73.9765 129.955 73.5461 130.431 73.2191 130.978C72.8921 131.525 72.6748 132.132 72.5797 132.763C72.4847 133.395 72.5136 134.04 72.665 134.66C72.8164 135.281 73.0871 135.865 73.4619 136.38C73.8366 136.894 74.308 137.329 74.8491 137.66C75.3902 137.99 75.9904 138.21 76.6154 138.306C77.2405 138.402 77.8781 138.373 78.4919 138.22L87.7638 135.916L88.4212 138.617C88.8091 140.209 89.8066 141.581 91.1946 142.431C92.5826 143.28 94.2474 143.538 95.8234 143.147L105.462 140.748V140.671C106.725 141.763 108.227 142.535 109.844 142.923C111.461 143.312 113.146 143.306 114.76 142.906L128.693 139.454L128.856 140.317C129.025 141.066 129.476 141.719 130.113 142.137C130.75 142.556 131.524 142.709 132.27 142.562C133.016 142.415 133.676 141.981 134.111 141.351C134.546 140.721 134.722 139.945 134.601 139.186L134.567 139.161Z" fill="var(--fill-0, #FFBF00)"/>
<path id="Vector_15" d="M134.567 139.16C134.627 139.377 134.653 139.601 134.644 139.825C134.633 140.493 134.398 141.138 133.978 141.654C133.633 142.072 133.183 142.388 132.675 142.57C132.168 142.752 131.621 142.794 131.092 142.69C130.575 142.579 130.096 142.331 129.705 141.972C129.313 141.612 129.023 141.154 128.864 140.645C128.753 140.265 128.702 139.877 128.616 139.48L128.727 139.549L118.482 142.138L115.417 142.914C114.332 143.229 113.208 143.386 112.079 143.38C109.607 143.332 107.229 142.417 105.351 140.791L105.608 140.627V140.696L105.65 140.86H105.488C102.235 141.663 98.8286 142.586 95.166 143.406C94.1891 143.533 93.1964 143.427 92.2671 143.097C91.3377 142.768 90.4973 142.223 89.8128 141.508C89.1028 140.769 88.5837 139.865 88.3017 138.876C88.037 137.892 87.815 136.908 87.5675 135.916L87.798 136.062L79.9775 138.056C79.303 138.203 78.6627 138.41 77.937 138.522C77.0122 138.636 76.0744 138.486 75.2291 138.09C74.3838 137.695 73.6646 137.068 73.1525 136.281C72.6405 135.495 72.3559 134.579 72.3309 133.638C72.3058 132.697 72.5413 131.767 73.0107 130.954C73.4063 130.295 73.9387 129.731 74.571 129.3C75.2034 128.87 75.9207 128.583 76.6734 128.46L85.3989 126.294L85.2452 126.544C85.0745 125.828 84.8952 125.086 84.7073 124.335C84.4862 123.564 84.3291 122.776 84.2378 121.979C84.1209 120.334 84.6379 118.708 85.6806 117.44C86.1903 116.817 86.8134 116.298 87.5162 115.912C88.2163 115.549 88.9636 115.288 89.736 115.136L98.4956 112.961L98.359 113.091C99.1945 110.832 100.747 108.917 102.773 107.645C103.761 107.037 104.839 106.591 105.966 106.325L109.21 105.514L121.539 102.468L121.402 102.683C121.308 102.217 121.223 101.743 121.129 101.277C121.007 100.801 120.975 100.306 121.035 99.8184C121.112 99.3358 121.299 98.8781 121.582 98.4818C121.865 98.0854 122.236 97.7615 122.665 97.5359C123.094 97.3103 123.569 97.1893 124.052 97.1826C124.536 97.1758 125.014 97.2835 125.449 97.497C125.875 97.6937 126.25 97.9867 126.546 98.3532C126.842 98.7198 127.051 99.1502 127.157 99.6113L129.026 109.371C130.187 115.498 131.203 120.849 132.04 125.276C132.877 129.702 133.517 133.154 133.97 135.545C134.183 136.718 134.345 137.624 134.456 138.254C134.507 138.556 134.55 138.781 134.576 138.953C134.584 139.034 134.584 139.115 134.576 139.195C134.547 139.12 134.527 139.042 134.516 138.962C134.516 138.789 134.431 138.565 134.371 138.272L133.816 135.562C133.346 133.18 132.663 129.711 131.792 125.319C130.922 120.926 129.889 115.55 128.693 109.432C128.096 106.371 127.461 103.123 126.789 99.6889C126.695 99.2823 126.511 98.9025 126.251 98.5781C125.991 98.2538 125.661 97.9933 125.287 97.8163C124.901 97.6309 124.478 97.5394 124.051 97.5493C123.624 97.5591 123.205 97.6701 122.828 97.8731C122.451 98.0762 122.127 98.3658 121.88 98.7186C121.634 99.0714 121.473 99.4776 121.411 99.9047C121.35 100.352 121.379 100.807 121.496 101.242C121.59 101.708 121.684 102.174 121.769 102.649V102.821L121.599 102.865L109.279 105.945C107.153 106.541 104.865 106.808 102.961 108.025C101.003 109.249 99.5017 111.094 98.692 113.272L98.6493 113.375H98.5469L89.7872 115.559C89.0504 115.7 88.3374 115.947 87.6699 116.292C87.018 116.655 86.4389 117.138 85.9624 117.716C84.9861 118.898 84.5024 120.417 84.6134 121.953C84.7012 122.727 84.8555 123.493 85.0745 124.24C85.2537 124.999 85.4416 125.742 85.6123 126.458L85.6635 126.656L85.4586 126.708L76.7844 128.874C76.0825 128.977 75.4121 129.237 74.8215 129.634C74.2309 130.031 73.7349 130.555 73.3693 131.169C72.9477 131.914 72.7389 132.763 72.7663 133.62C72.7937 134.478 73.0561 135.311 73.5244 136.027C73.9927 136.743 74.6484 137.313 75.4184 137.674C76.1885 138.036 77.0426 138.174 77.8857 138.073C78.5346 137.987 79.2176 137.771 79.8836 137.616L87.6955 135.683L87.8833 135.64L87.926 135.821C88.1736 136.813 88.3956 137.814 88.6517 138.772C88.916 139.703 89.4028 140.553 90.069 141.249C90.7126 141.924 91.5027 142.438 92.377 142.751C93.2513 143.064 94.1857 143.167 95.1062 143.052C98.7005 142.241 102.167 141.326 105.403 140.541L105.292 140.74V140.671L105.172 140.179L105.548 140.507C107.37 142.085 109.679 142.973 112.079 143.018C113.182 143.027 114.28 142.876 115.34 142.569L118.405 141.818L128.651 139.307H128.745V139.402C128.83 139.799 128.881 140.205 128.984 140.558C129.086 140.907 129.254 141.232 129.479 141.516C129.896 142.029 130.469 142.387 131.109 142.535C131.519 142.62 131.942 142.614 132.349 142.519C132.756 142.423 133.138 142.239 133.468 141.98C133.798 141.721 134.069 141.392 134.262 141.017C134.455 140.642 134.565 140.23 134.584 139.808C134.589 139.592 134.584 139.376 134.567 139.16V139.16Z" fill="var(--fill-0, #263238)"/>
<path id="Vector_16" d="M129.001 139.368C128.89 139.368 127.063 131.204 124.92 121.09C122.777 110.976 121.12 102.744 121.24 102.718C121.359 102.692 123.178 110.873 125.329 120.995C127.481 131.118 129.12 139.342 129.001 139.368Z" fill="var(--fill-0, #263238)"/>
<path id="Vector_17" d="M105.429 140.645C105.318 140.645 103.721 134.526 101.792 126.924C99.862 119.321 98.4533 113.116 98.5643 113.116C98.6753 113.116 100.272 119.235 102.201 126.855C104.131 134.475 105.54 140.645 105.429 140.645Z" fill="var(--fill-0, #263238)"/>
<path id="Vector_18" d="M87.7469 135.916C87.1206 134.42 86.6652 132.856 86.3894 131.256C85.9807 129.689 85.6671 128.098 85.4503 126.492C86.0721 127.992 86.5246 129.559 86.7993 131.161C87.2084 132.725 87.5249 134.313 87.7469 135.916V135.916Z" fill="var(--fill-0, #263238)"/>
<path id="Vector_19" d="M96.1652 115.438C96.1652 115.498 95.2517 115.636 93.7832 115.947C93.049 116.102 92.1781 116.301 91.2219 116.568C90.1932 116.835 89.2011 117.23 88.2679 117.742C87.32 118.177 86.572 118.961 86.1761 119.934C85.9843 120.784 85.9669 121.665 86.1249 122.523C86.3127 124.016 86.5603 124.93 86.5006 124.948C86.1534 124.195 85.9258 123.391 85.8261 122.566C85.6318 121.668 85.6318 120.737 85.8261 119.839C85.9784 119.295 86.2734 118.803 86.6799 118.415C87.0973 118.01 87.5651 117.662 88.0715 117.38C89.0321 116.844 90.0604 116.444 91.128 116.189C92.1013 115.939 92.9892 115.775 93.6893 115.654C94.5015 115.471 95.3341 115.399 96.1652 115.438Z" fill="var(--fill-0, white)"/>
<path id="Vector_20" d="M118.619 104.97C118.363 105.095 118.09 105.18 117.808 105.221C117.287 105.35 116.519 105.531 115.571 105.738L108.178 107.309C106.838 107.591 105.54 108.049 104.319 108.672C103.329 109.193 102.456 109.916 101.757 110.795C101.133 111.626 100.698 112.587 100.485 113.608C100.441 113.32 100.461 113.025 100.545 112.745C100.733 111.974 101.073 111.249 101.544 110.614C102.238 109.673 103.127 108.895 104.148 108.336C105.391 107.667 106.722 107.181 108.101 106.895C111.004 106.265 113.625 105.799 115.537 105.445C116.485 105.272 117.245 105.143 117.8 105.057C118.069 104.998 118.344 104.969 118.619 104.97V104.97Z" fill="var(--fill-0, white)"/>
<path id="Vector_21" d="M83.8279 128.641C83.3328 128.981 82.7706 129.208 82.1801 129.306C81.1129 129.599 79.6188 129.72 78.0052 130.065C77.2599 130.218 76.5389 130.474 75.8623 130.825C75.3159 131.112 74.8222 131.491 74.4023 131.946C74.0398 132.399 73.7277 132.891 73.4717 133.413C73.5092 132.796 73.7565 132.211 74.1718 131.757C74.5865 131.237 75.0968 130.803 75.6744 130.479C76.3712 130.076 77.1258 129.785 77.9113 129.616C79.5591 129.263 81.0617 129.194 82.1118 128.978C83.162 128.762 83.8023 128.564 83.8279 128.641Z" fill="var(--fill-0, white)"/>
<path id="Vector_22" d="M125.014 98.2565C125.014 98.3255 124.698 98.3169 124.246 98.4377C123.669 98.5958 123.15 98.9196 122.751 99.3697C122.368 99.8379 122.132 100.412 122.077 101.018C122.026 101.484 122.077 101.795 122.017 101.803C121.957 101.812 121.804 101.536 121.778 101.009C121.749 100.311 121.981 99.6273 122.427 99.0935C122.881 98.5685 123.51 98.2306 124.194 98.1443C124.715 98.0839 125.022 98.2047 125.014 98.2565Z" fill="var(--fill-0, white)"/>
</g>
<g id="plug">
<path id="Vector_23" d="M238.839 144.994C239.936 146.342 247.971 156.056 260.019 166.33C272.864 177.284 290.295 188.897 308.754 191.659C318.515 193.121 325.337 192.132 330.576 190.006C335.812 187.882 339.449 184.627 342.837 181.599C345.882 178.876 348.809 176.261 352.458 174.879C356.095 173.503 360.471 173.345 366.418 175.596C371.642 177.579 374.076 180.856 375.143 184.648C376.215 188.459 375.908 192.797 375.613 196.909C375.272 201.698 374.948 206.22 376.353 210.034C377.767 213.872 380.919 216.963 387.443 218.939C391.154 220.062 395.143 219.412 399.201 217.61C403.259 215.808 407.403 212.846 411.439 209.319C418.501 203.146 425.258 195.215 430.67 188.66L432.905 185.944C434.955 183.452 436.688 181.308 438.194 179.552C439.644 177.86 440.875 176.538 441.966 175.617L444.888 177.973C444.155 178.852 442.881 180.293 441.336 182.055C439.699 183.922 437.764 186.148 435.866 188.442L435.865 188.443C430.033 195.56 422.853 204.307 415.142 211.276C407.423 218.251 399.211 223.406 391.317 223.406C389.631 223.411 387.953 223.166 386.337 222.68C378.278 220.24 374.49 216.095 372.782 211.403C371.068 206.689 371.439 201.399 371.769 196.635C372.084 192.212 372.253 188.565 371.423 185.68C371.006 184.232 370.337 182.97 369.307 181.897C368.277 180.824 366.895 179.946 365.067 179.252H365.066C360.25 177.429 356.821 177.393 353.837 178.508C350.869 179.618 348.364 181.86 345.388 184.52C341.835 187.696 337.875 191.238 332.137 193.592C326.581 195.871 319.344 197.043 309.182 195.659L308.19 195.517C297.131 193.857 279.236 187.947 257.312 169.174V169.173C249.544 162.569 242.36 155.295 235.839 147.433L238.839 144.994Z" fill="var(--fill-0, #FFBF00)" stroke="var(--stroke-0, black)" stroke-width="0.4"/>
<path id="Vector_24" d="M331.135 189.631C331.135 189.631 330.964 189.795 330.623 190.011C330.144 190.331 329.645 190.619 329.129 190.874C327.422 191.718 325.618 192.344 323.759 192.738C321.9 193.124 320.001 193.272 318.107 193.178C317.535 193.147 316.965 193.087 316.399 192.996C316.188 192.978 315.981 192.929 315.784 192.85C315.784 192.781 316.689 192.85 318.124 192.85C321.87 192.869 325.579 192.093 329.009 190.572C330.316 189.968 331.101 189.527 331.135 189.631Z" fill="var(--fill-0, white)"/>
<path id="Vector_25" d="M356.099 176.609C355.635 176.626 355.169 176.609 354.707 176.557C352.477 176.525 350.305 177.282 348.569 178.697C348.236 179.026 347.879 179.328 347.502 179.604C347.698 179.166 347.99 178.78 348.355 178.473C349.198 177.67 350.201 177.057 351.296 176.677C352.391 176.296 353.554 176.155 354.707 176.264C355.192 176.268 355.668 176.386 356.099 176.609V176.609Z" fill="var(--fill-0, white)"/>
<path id="Vector_26" d="M383.292 217.366C382.621 217.286 381.97 217.084 381.371 216.771C379.888 216.081 378.555 215.103 377.447 213.892C376.339 212.68 375.479 211.26 374.916 209.712C374.656 209.084 374.509 208.415 374.481 207.736C374.549 207.736 374.72 208.469 375.198 209.6C375.823 211.07 376.689 212.424 377.759 213.604C378.836 214.777 380.103 215.755 381.507 216.495C382.583 217.064 383.317 217.297 383.292 217.366Z" fill="var(--fill-0, white)"/>
<path id="Vector_27" d="M442.739 176.92C440.706 179.383 438.454 181.653 436.012 183.702C438.057 181.25 440.308 178.98 442.739 176.92V176.92Z" fill="var(--fill-0, white)"/>
<path id="Vector_28" d="M239.321 148.356C238.446 149.329 237.224 149.912 235.924 149.975C234.624 150.038 233.352 149.577 232.389 148.692L224.893 141.789L231.501 134.445L238.988 141.349C239.951 142.233 240.527 143.469 240.59 144.783C240.652 146.097 240.196 147.382 239.321 148.356Z" fill="var(--fill-0, #FFBF00)"/>
<path id="Vector_29" d="M239.321 148.356C239.573 147.984 239.803 147.598 240.013 147.2C240.54 146.074 240.622 144.787 240.243 143.601C239.986 142.781 239.518 142.045 238.886 141.47L236.623 139.424C235.027 137.957 233.251 136.344 231.364 134.626H231.654L228.35 138.303L225.046 141.97V141.677L230.271 146.483L232.508 148.563C233.133 149.143 233.899 149.545 234.728 149.728C235.933 149.995 237.194 149.788 238.254 149.15C238.628 148.901 238.987 148.63 239.33 148.339C239.056 148.709 238.718 149.025 238.331 149.271C237.254 149.988 235.94 150.245 234.677 149.987C233.792 149.812 232.969 149.401 232.295 148.796C231.586 148.158 230.835 147.467 230.032 146.751L224.764 141.944L224.611 141.806L224.756 141.651L228.051 137.975L231.355 134.316L231.492 134.16L231.646 134.298L236.871 139.14L239.108 141.219C239.771 141.839 240.255 142.63 240.508 143.506C240.879 144.751 240.75 146.093 240.149 147.243C239.947 147.665 239.666 148.043 239.321 148.356V148.356Z" fill="var(--fill-0, #263238)"/>
<path id="Vector_30" d="M201.448 106.9L188.522 96.0956C188.281 95.8939 188.081 95.6462 187.935 95.3666C187.789 95.087 187.698 94.781 187.669 94.466C187.639 94.1511 187.672 93.8333 187.764 93.531C187.856 93.2287 188.006 92.9477 188.206 92.7041V92.7041C188.406 92.4604 188.651 92.2587 188.927 92.1108C189.204 91.9628 189.507 91.8713 189.818 91.8417C190.13 91.812 190.444 91.8447 190.743 91.9379C191.042 92.0311 191.32 92.183 191.561 92.3849L204.479 103.189L201.448 106.9Z" fill="var(--fill-0, #FFBF00)"/>
<path id="Vector_31" d="M189.29 122.683L176.381 111.879C176.14 111.678 175.939 111.431 175.792 111.151C175.645 110.872 175.554 110.566 175.524 110.251C175.493 109.936 175.525 109.618 175.617 109.316C175.708 109.013 175.858 108.732 176.057 108.487V108.487C176.256 108.243 176.501 108.04 176.777 107.892C177.054 107.743 177.357 107.651 177.669 107.621C177.981 107.592 178.295 107.625 178.595 107.719C178.894 107.812 179.172 107.965 179.412 108.168L192.338 118.964L189.29 122.683Z" fill="var(--fill-0, #FFBF00)"/>
<g id="Group" opacity="0.6">
<path id="Vector_32" opacity="0.6" d="M201.448 106.9L188.522 96.0956C188.281 95.8939 188.081 95.6462 187.935 95.3666C187.789 95.087 187.698 94.781 187.669 94.466C187.639 94.1511 187.672 93.8333 187.764 93.531C187.856 93.2287 188.006 92.9477 188.206 92.7041V92.7041C188.406 92.4604 188.651 92.2587 188.927 92.1108C189.204 91.9628 189.507 91.8713 189.818 91.8417C190.13 91.812 190.444 91.8447 190.743 91.9379C191.042 92.0311 191.32 92.183 191.561 92.3849L204.479 103.189L201.448 106.9Z" fill="var(--fill-0, white)"/>
</g>
<g id="Group_2" opacity="0.6">
<path id="Vector_33" opacity="0.6" d="M189.29 122.683L176.381 111.879C176.14 111.678 175.939 111.431 175.792 111.151C175.645 110.872 175.554 110.566 175.524 110.251C175.493 109.936 175.525 109.618 175.617 109.316C175.708 109.013 175.858 108.732 176.057 108.487V108.487C176.256 108.243 176.501 108.04 176.777 107.892C177.054 107.743 177.357 107.651 177.669 107.621C177.981 107.592 178.295 107.625 178.595 107.719C178.894 107.812 179.172 107.965 179.412 108.168L192.338 118.964L189.29 122.683Z" fill="var(--fill-0, white)"/>
</g>
<path id="Vector_34" d="M201.448 106.9C201.507 106.8 201.573 106.705 201.644 106.615L202.225 105.856L204.385 103.103V103.284L198.315 98.2961L194.515 95.1377L192.475 93.4118L191.425 92.5488C191.105 92.2704 190.709 92.0959 190.289 92.0483C189.935 92.0024 189.574 92.0461 189.241 92.1756C188.907 92.3052 188.61 92.5164 188.377 92.7904C188.151 93.058 187.992 93.3759 187.912 93.718C187.831 94.0601 187.833 94.4166 187.916 94.758C187.998 95.0793 188.156 95.3755 188.377 95.6209C188.618 95.8763 188.878 96.1128 189.154 96.3285L190.759 97.6748L196.291 102.378L200.039 105.605L201.064 106.468C201.194 106.574 201.317 106.69 201.431 106.813C201.303 106.739 201.183 106.652 201.072 106.555L200.048 105.692C199.1 104.924 197.802 103.879 196.232 102.594L190.545 97.925L188.906 96.5702C188.607 96.3375 188.322 96.0868 188.052 95.8194C187.691 95.4244 187.461 94.9256 187.393 94.3921C187.325 93.8585 187.423 93.3169 187.674 92.8424C187.924 92.3679 188.315 91.9842 188.792 91.7444C189.268 91.5047 189.806 91.4209 190.332 91.5046C190.831 91.5695 191.302 91.776 191.689 92.1001L192.731 92.963L194.763 94.6889L198.545 97.8732L204.522 102.956L204.624 103.042L204.539 103.137L202.225 105.864L201.61 106.555C201.571 106.676 201.516 106.792 201.448 106.9V106.9Z" fill="var(--fill-0, #263238)"/>
<path id="Vector_35" d="M189.29 122.683C189.348 122.581 189.417 122.485 189.495 122.398C189.649 122.191 189.837 121.941 190.076 121.639L192.236 118.886V119.067L186.166 114.071L182.366 110.921L180.326 109.195L179.276 108.332C178.949 108.059 178.552 107.885 178.132 107.832C177.776 107.789 177.416 107.835 177.083 107.966C176.749 108.097 176.453 108.309 176.219 108.582C175.993 108.849 175.833 109.167 175.754 109.51C175.675 109.853 175.68 110.209 175.767 110.55C175.847 110.87 176.002 111.166 176.219 111.413C176.463 111.665 176.726 111.899 177.005 112.112L178.601 113.467L184.142 118.17L187.89 121.397L188.915 122.26C189.046 122.361 189.167 122.477 189.273 122.605C189.273 122.605 189.154 122.528 188.923 122.346L187.89 121.527L184.074 118.429L178.396 113.76L176.757 112.397C176.454 112.169 176.168 111.918 175.903 111.646C175.637 111.34 175.45 110.972 175.357 110.576C175.253 110.171 175.248 109.747 175.341 109.34C175.435 108.932 175.625 108.554 175.895 108.237C176.177 107.917 176.532 107.671 176.929 107.521C177.326 107.371 177.754 107.32 178.174 107.374C178.673 107.44 179.144 107.646 179.532 107.97C179.882 108.272 180.232 108.556 180.582 108.833L182.614 110.558L186.396 113.734L192.372 118.826L192.466 118.912L192.39 119.007C191.416 120.137 190.639 121.052 190.067 121.725L189.461 122.424C189.376 122.614 189.29 122.692 189.29 122.683Z" fill="var(--fill-0, #263238)"/>
<path id="Vector_36" d="M230.817 120.595L231.159 120.18C231.881 119.302 232.255 118.185 232.209 117.044C232.163 115.903 231.701 114.82 230.911 114.003C230.122 113.187 229.061 112.695 227.933 112.623C226.806 112.551 225.692 112.904 224.807 113.613L205.887 97.6832L184.244 123.857L203.608 139.39C203.008 140.338 202.771 141.476 202.942 142.588C203.114 143.701 203.681 144.711 204.538 145.43V145.43C205.457 146.198 206.635 146.571 207.822 146.471C209.009 146.371 210.111 145.806 210.89 144.895C213.624 146.98 217.053 147.905 220.45 147.475C223.847 147.044 226.944 145.293 229.084 142.591L232.192 138.674C234.266 136.043 235.278 132.715 235.023 129.361C234.768 126.007 233.265 122.874 230.817 120.595V120.595Z" fill="var(--fill-0, #FFBF00)"/>
<path id="Vector_37" d="M230.818 120.595L230.98 120.741L231.432 121.181C231.683 121.415 231.914 121.669 232.124 121.941L232.542 122.459L232.969 123.089C233.724 124.189 234.3 125.404 234.677 126.687C235.245 128.625 235.369 130.668 235.039 132.661C234.709 134.654 233.934 136.545 232.773 138.19C232.081 139.183 231.279 140.123 230.493 141.15C229.701 142.235 228.825 143.253 227.872 144.196C225.707 146.243 222.921 147.49 219.966 147.735C216.695 148.022 213.434 147.082 210.805 145.094H211.07C210.271 146.014 209.159 146.597 207.954 146.725C207.328 146.791 206.695 146.731 206.093 146.547C205.49 146.364 204.93 146.06 204.445 145.655V145.655C203.549 144.902 202.956 143.845 202.777 142.682C202.598 141.519 202.845 140.33 203.472 139.338L203.514 139.605L188.497 127.498L184.117 123.977L183.946 123.848L184.083 123.675C191.971 114.183 199.339 105.26 205.751 97.5279L205.871 97.3812L206.007 97.502L224.884 113.475H224.739C225.429 112.926 226.259 112.586 227.132 112.494C228.006 112.401 228.887 112.561 229.675 112.953C230.462 113.346 231.124 113.956 231.583 114.712C232.042 115.469 232.28 116.342 232.269 117.229C232.253 118.16 231.955 119.063 231.415 119.818C231.278 120.008 231.13 120.19 230.971 120.362L230.809 120.543C230.809 120.543 231.014 120.284 231.364 119.783C231.867 119.016 232.135 118.115 232.132 117.195C232.13 116.469 231.956 115.754 231.624 115.11C231.293 114.466 230.815 113.912 230.229 113.493C229.486 112.939 228.59 112.637 227.667 112.63C226.643 112.617 225.645 112.961 224.841 113.605L224.764 113.665L224.688 113.605L205.734 97.7264H205.99L184.407 123.96V123.658L188.778 127.179L203.762 139.26L203.907 139.373L203.805 139.528C203.225 140.433 202.992 141.52 203.149 142.586C203.306 143.652 203.843 144.624 204.658 145.318V145.318C205.538 146.053 206.667 146.412 207.805 146.317C208.942 146.221 209.998 145.68 210.746 144.809L210.865 144.68L211.002 144.783C213.439 146.622 216.436 147.54 219.472 147.377C222.509 147.215 225.393 145.983 227.625 143.894C228.554 142.961 229.41 141.957 230.186 140.891C230.98 139.873 231.8 138.924 232.483 137.957C234.009 135.8 234.859 133.23 234.923 130.579C234.987 127.928 234.262 125.318 232.841 123.089C232.696 122.864 232.559 122.648 232.423 122.45L232.013 121.932C231.808 121.653 231.586 121.388 231.347 121.138L230.912 120.681C230.843 120.623 230.812 120.595 230.818 120.595Z" fill="var(--fill-0, #263238)"/>
<path id="Vector_38" d="M209.158 121.097L195.808 109.939L193.648 112.579L206.998 123.737L209.158 121.097Z" fill="var(--fill-0, #E0E0E0)"/>
<path id="Vector_39" d="M230.817 120.595C230.607 120.954 230.367 121.295 230.1 121.613C229.622 122.26 228.913 123.175 228.026 124.297C226.258 126.549 223.757 129.612 220.965 132.969C218.173 136.326 215.689 139.303 213.802 141.556L211.633 144.145C211.377 144.475 211.091 144.781 210.78 145.059C210.99 144.7 211.23 144.359 211.497 144.041C211.975 143.394 212.683 142.479 213.571 141.357C215.339 139.105 217.84 136.041 220.632 132.728L227.795 124.098L229.972 121.509C230.225 121.178 230.508 120.872 230.817 120.595V120.595Z" fill="var(--fill-0, #263238)"/>
<path id="Vector_40" d="M224.807 113.579C224.584 113.958 224.326 114.317 224.039 114.649C223.518 115.322 222.749 116.289 221.802 117.471C219.889 119.835 217.208 123.063 214.22 126.601C211.232 130.139 208.551 133.28 206.536 135.653C205.58 136.758 204.829 137.681 204.197 138.38C203.922 138.727 203.619 139.05 203.292 139.347C203.525 138.971 203.784 138.613 204.069 138.277C204.59 137.603 205.35 136.637 206.306 135.455C208.218 133.09 210.899 129.863 213.887 126.325L221.571 117.281L223.91 114.545C224.184 114.2 224.484 113.877 224.807 113.579V113.579Z" fill="var(--fill-0, #263238)"/>
</g>
<path id="Vector_41" d="M192.158 75.8082H185.993L189.067 67.3105L179.675 80.3245H185.84L182.766 88.8222L192.158 75.8082Z" fill="var(--fill-0, #BBBBD6)"/>
<path id="Vector_42" d="M147.101 85.2846H137.824L142.449 100.965L128.318 76.9505H137.595L132.969 61.2696L147.101 85.2846Z" fill="var(--fill-0, #BBBBD6)"/>
</g>
</g>
</g>
<defs>
<filter id="filter0_i_0_6" x="1.33086e-07" y="1.19987e-07" width="317" height="231.626" filterUnits="userSpaceOnUse" color-interpolation-filters="sRGB">
<feFlood flood-opacity="0" result="BackgroundImageFix"/>
<feBlend mode="normal" in="SourceGraphic" in2="BackgroundImageFix" result="shape"/>
<feColorMatrix in="SourceAlpha" type="matrix" values="0 0 0 0 0 0 0 0 0 0 0 0 0 0 0 0 0 0 127 0" result="hardAlpha"/>
<feOffset dy="5.62608"/>
<feGaussianBlur stdDeviation="7.50145"/>
<feComposite in2="hardAlpha" operator="arithmetic" k2="-1" k3="1"/>
<feColorMatrix type="matrix" values="0 0 0 0 0 0 0 0 0 0 0 0 0 0 0 0 0 0 0.25 0"/>
<feBlend mode="normal" in2="shape" result="effect1_innerShadow_0_6"/>
</filter>
</defs>
</svg>
